<svg xmlns="http://www.w3.org/2000/svg" viewBox="0 0 397.91 351.11"><defs><style>.cls-1{fill:#939598;}.cls-1,.cls-2{fill-rule:evenodd;}.cls-2{fill:#84c98b;}</style></defs><g id="Layer_2" data-name="Layer 2"><g id="Warstwa_1" data-name="Warstwa 1"><path class="cls-1" d="M311.24,267.92C326.42,250,362.12,206.39,371,178.25c14.54-46-20.56-89.08-48.08-100.36-56.26-23-72.78,39.08-52.25,77.55,20.27,38,41.56,51.22,40.56,112.48"/><path class="cls-1" d="M89.25,267.66c2.38-27.74,1.32-37.93,12.69-63,9.62-21.26,19.19-30.68,28.17-47.78,19-36.17,4.83-102.7-50-80C54,87.67,19,130.42,29.15,173.71c5.61,24,46,77.57,60.1,94"/><path class="cls-1" d="M69,44.92c.78.67,1.86.82,2.2,2.16,1.58,6.33,24.43,18.19,34.45,13.19,15.44-16.4,18.21-39.61-2-54.41C90.61-3.71,62.7-7.88,69,44.92"/><path class="cls-1" d="M21.76,72.56c-4.91,15.27,3.37,27.53,20.78,23.55,4.39-7.43,6.53-9.86,1.08-18.68C33,60.15,21.77,72.56,21.76,72.56"/><path class="cls-1" d="M37.75,37.26c29.9-8.14,39.76,21.07,28.78,32.85-14.89,16-37.95-5.26-28.78-32.85"/><path class="cls-1" d="M9.45,97.73C5.23,110.86,12.34,121.4,27.32,118c3.77-6.39,5.61-8.48.92-16.06C19.07,87.07,9.46,97.73,9.45,97.73"/><path class="cls-1" d="M1,125.32c-3.38,10.52,2.33,19,14.33,16.23,3-5.12,4.5-6.79.74-12.88C8.67,116.77,1,125.32,1,125.32"/><path class="cls-1" d="M328.93,46.37c-.78.68-1.86.83-2.2,2.17-1.59,6.33-24.44,18.19-34.46,13.19-15.43-16.4-18.21-39.61,2-54.41,13.06-9.57,41-13.74,34.69,39.05"/><path class="cls-1" d="M376.15,74c4.91,15.27-3.37,27.53-20.78,23.55-4.39-7.43-6.54-9.86-1.09-18.68C365,61.61,376.14,74,376.15,74"/><path class="cls-1" d="M360.15,38.72c-29.89-8.14-39.75,21.07-28.78,32.84,14.9,16,38-5.24,28.78-32.84"/><path class="cls-1" d="M388.46,99.2c4.22,13.12-2.89,23.66-17.87,20.24-3.77-6.39-5.61-8.48-.93-16.06,9.17-14.85,18.79-4.19,18.8-4.18"/><path class="cls-1" d="M396.94,126.78c3.39,10.52-2.32,19-14.32,16.23-3-5.12-4.5-6.8-.75-12.88,7.36-11.9,15.07-3.35,15.07-3.35"/><path class="cls-1" d="M181.33,338a29.21,29.21,0,0,1-10.88,8.53C128.64,365.33,105,323,102,278.25a19.47,19.47,0,0,0,13.51,5.42h46.65v36.62c0,10.18,8.87,17.72,18.78,17.72Z"/><path class="cls-1" d="M221,338a29.1,29.1,0,0,0,10.87,8.53c42,18.86,65.65-23.92,68.47-68.83a19.46,19.46,0,0,1-14.06,6H243.4v36.62c0,10.18-8.87,17.72-18.78,17.72Z"/><path class="cls-2" d="M291.5,227.66c0-2.61-2.9-4.18-5.25-4.18H229.87V166.79c0-2.62-2.91-4.18-5.25-4.18H181c-2.34,0-5.25,1.56-5.25,4.18v56.69H115.53c-2.34,0-5.25,1.57-5.25,4.18v39.58c0,2.63,2.91,4.19,5.25,4.19h60.18v50.15c0,2.62,2.91,4.18,5.25,4.18h43.66c2.34,0,5.25-1.56,5.25-4.18V271.43h56.38c2.35,0,5.25-1.56,5.25-4.19Z"/></g></g></svg>